<svg xmlns="http://www.w3.org/2000/svg" viewBox="0 0 2048 2048" role="img" aria-labelledby="title desc">
  <title id="title">Robel Gebre website icon</title>
  <desc id="desc">A square neuroimaging and AI icon showing a clear stylized brain, network nodes, orbit paths, and a subtle faded scanner background.</desc>
  <defs>
    <linearGradient id="bg" x1="160" y1="120" x2="1880" y2="1920" gradientUnits="userSpaceOnUse">
      <stop offset="0" stop-color="#FFFFFF"/>
      <stop offset="1" stop-color="#F8FBFD"/>
    </linearGradient>
    <linearGradient id="scannerGrad" x1="210" y1="250" x2="1780" y2="1730" gradientUnits="userSpaceOnUse">
      <stop offset="0" stop-color="#B8D0E3" stop-opacity="0.30"/>
      <stop offset="1" stop-color="#DCEAF2" stop-opacity="0.08"/>
    </linearGradient>
    <linearGradient id="brainFill" x1="590" y1="520" x2="960" y2="1540" gradientUnits="userSpaceOnUse">
      <stop offset="0" stop-color="#FFFFFF"/>
      <stop offset="0.57" stop-color="#EAF8FA"/>
      <stop offset="1" stop-color="#BFEAF2"/>
    </linearGradient>
    <linearGradient id="brainFill2" x1="1035" y1="520" x2="1465" y2="1540" gradientUnits="userSpaceOnUse">
      <stop offset="0" stop-color="#FFFFFF"/>
      <stop offset="0.57" stop-color="#ECF9FA"/>
      <stop offset="1" stop-color="#C7EEF5"/>
    </linearGradient>
    <linearGradient id="tealOrbit" x1="390" y1="820" x2="1640" y2="1330" gradientUnits="userSpaceOnUse">
      <stop offset="0" stop-color="#13AEB5"/>
      <stop offset="1" stop-color="#25C0B7"/>
    </linearGradient>
    <linearGradient id="goldOrbit" x1="900" y1="725" x2="1750" y2="1285" gradientUnits="userSpaceOnUse">
      <stop offset="0" stop-color="#F6C75B"/>
      <stop offset="1" stop-color="#E5A51D"/>
    </linearGradient>
    <filter id="shadow" x="-20%" y="-20%" width="140%" height="140%">
      <feDropShadow dx="0" dy="28" stdDeviation="36" flood-color="#06213D" flood-opacity="0.13"/>
    </filter>
  </defs>

  <rect width="2048" height="2048" fill="#FFFFFF"/>
  <rect width="2048" height="2048" rx="330" fill="url(#bg)"/>

  <!-- scanner background -->
  <g opacity="0.48">
    <path d="M228 1044 C228 596 585 250 1050 250 C1432 250 1743 522 1790 895 C1838 1282 1589 1644 1199 1772 C923 1863 615 1791 421 1588 C296 1457 228 1267 228 1044Z" fill="url(#scannerGrad)"/>
    <path d="M405 1039 C405 714 672 472 1052 472 C1435 472 1690 718 1690 1039 C1690 1364 1434 1604 1052 1604 C672 1604 405 1364 405 1039Z" fill="#FFFFFF" opacity="0.58"/>
    <path d="M518 1039 C518 780 736 588 1055 588 C1374 588 1591 783 1591 1039 C1591 1298 1374 1488 1055 1488 C735 1488 518 1298 518 1039Z" fill="none" stroke="#BED3E5" stroke-width="22" opacity="0.35"/>
    <path d="M676 1040 C676 874 819 750 1054 750 C1289 750 1434 876 1434 1040 C1434 1206 1289 1329 1054 1329 C819 1329 676 1206 676 1040Z" fill="#DDECF4" opacity="0.13"/>
    <path d="M311 1027 L512 1027 L512 1341 L311 1282Z" fill="#D7E7F1" opacity="0.22"/>
    <path d="M626 1588 L1198 1588 L1530 1700 L825 1780Z" fill="#D7E7F1" opacity="0.20"/>
    <path d="M1265 1360 C1455 1413 1621 1490 1760 1606 C1796 1637 1778 1697 1732 1707 L1371 1777 C1345 1782 1317 1776 1295 1761 L990 1557 Z" fill="#D7E7F1" opacity="0.17"/>
    <path d="M1009 376 L1095 376 L1090 426 L1010 426Z" fill="#C8DBEA" opacity="0.24"/>
  </g>

  <g filter="url(#shadow)">
    <!-- orbits -->
    <g fill="none" stroke-linecap="round" stroke-linejoin="round">
      <path d="M356 1025 C552 690 1281 666 1612 906 C1811 1050 1805 1291 1590 1436 C1272 1651 613 1511 383 1208" stroke="url(#tealOrbit)" stroke-width="19" opacity="0.94"/>
      <path d="M1170 722 C1515 774 1759 966 1755 1187 C1751 1437 1431 1576 1019 1511 C680 1458 428 1276 395 1070" stroke="url(#goldOrbit)" stroke-width="17" opacity="0.86"/>
      <circle cx="1693" cy="790" r="45" fill="#F1AE30" stroke="#FFFFFF" stroke-width="14"/>
      <circle cx="420" cy="1456" r="48" fill="#15B8B7" stroke="#FFFFFF" stroke-width="14"/>
    </g>

    <!-- brain -->
    <path d="M953 545
      C881 477 768 486 708 558
      C622 567 554 630 538 715
      C471 750 429 820 430 897
      C365 947 337 1038 368 1118
      C313 1188 308 1286 357 1361
      C341 1460 398 1558 493 1591
      C521 1682 612 1745 704 1730
      C771 1815 907 1807 958 1708
      C984 1656 992 1601 992 1512
      L992 680
      C992 623 981 580 953 545 Z" fill="url(#brainFill)" stroke="#073F68" stroke-width="28" stroke-linejoin="round"/>
    <path d="M1095 545
      C1167 477 1280 486 1340 558
      C1426 567 1494 630 1510 715
      C1577 750 1619 820 1618 897
      C1683 947 1711 1038 1680 1118
      C1735 1188 1740 1286 1691 1361
      C1707 1460 1650 1558 1555 1591
      C1527 1682 1436 1745 1344 1730
      C1277 1815 1141 1807 1090 1708
      C1064 1656 1056 1601 1056 1512
      L1056 680
      C1056 623 1067 580 1095 545 Z" fill="url(#brainFill2)" stroke="#073F68" stroke-width="28" stroke-linejoin="round"/>
    <path d="M1024 600 L1024 1668" stroke="#073F68" stroke-width="42" stroke-linecap="round"/>
    <path d="M1024 625 L1024 1642" stroke="#FFFFFF" stroke-width="12" stroke-linecap="round" opacity="0.58"/>

    <!-- folds -->
    <g fill="none" stroke="#9BC7D8" stroke-width="24" stroke-linecap="round" stroke-linejoin="round" opacity="0.63">
      <path d="M706 690 C643 704 611 755 627 813"/>
      <path d="M805 652 C740 687 737 763 783 805"/>
      <path d="M892 693 C941 734 930 809 872 843"/>
      <path d="M575 870 C638 845 714 883 724 954"/>
      <path d="M496 1055 C571 1025 648 1074 652 1159"/>
      <path d="M652 1221 C731 1217 785 1269 782 1338"/>
      <path d="M522 1354 C587 1388 618 1455 590 1521"/>
      <path d="M759 1440 C824 1484 822 1578 757 1622"/>
      <path d="M907 1358 C959 1394 959 1471 904 1514"/>
      <path d="M1342 690 C1405 704 1437 755 1421 813"/>
      <path d="M1243 652 C1308 687 1311 763 1265 805"/>
      <path d="M1156 693 C1107 734 1118 809 1176 843"/>
      <path d="M1473 870 C1410 845 1334 883 1324 954"/>
      <path d="M1552 1055 C1477 1025 1400 1074 1396 1159"/>
      <path d="M1396 1221 C1317 1217 1263 1269 1266 1338"/>
      <path d="M1526 1354 C1461 1388 1430 1455 1458 1521"/>
      <path d="M1289 1440 C1224 1484 1226 1578 1291 1622"/>
      <path d="M1141 1358 C1089 1394 1089 1471 1144 1514"/>
    </g>

    <!-- network overlay -->
    <g stroke-linecap="round" stroke-linejoin="round">
      <path d="M706 1033 L843 841 L1024 1024 L1242 842 L1395 1035 L1242 1266 L1024 1101 L843 1265 Z" fill="none" stroke="#FFFFFF" stroke-width="48" opacity="0.80"/>
      <path d="M706 1033 L843 841 L1024 1024" fill="none" stroke="#13B7B1" stroke-width="22"/>
      <path d="M1024 1024 L1242 842 L1395 1035" fill="none" stroke="#F2B23C" stroke-width="22"/>
      <path d="M1395 1035 L1242 1266 L1024 1101" fill="none" stroke="#19B9B2" stroke-width="22"/>
      <path d="M1024 1101 L843 1265 L706 1033" fill="none" stroke="#F2B23C" stroke-width="22"/>
      <path d="M843 841 L843 1265" stroke="#FFFFFF" stroke-width="10" opacity="0.85"/>
      <path d="M1242 842 L1242 1266" stroke="#FFFFFF" stroke-width="10" opacity="0.85"/>
      <circle cx="706" cy="1033" r="58" fill="#18B8B7" stroke="#FFFFFF" stroke-width="20"/>
      <circle cx="843" cy="841" r="58" fill="#F2AF2C" stroke="#FFFFFF" stroke-width="20"/>
      <circle cx="1024" cy="1024" r="66" fill="#31C7EA" stroke="#FFFFFF" stroke-width="21"/>
      <circle cx="1242" cy="842" r="58" fill="#F2AF2C" stroke="#FFFFFF" stroke-width="20"/>
      <circle cx="1395" cy="1035" r="58" fill="#F2AF2C" stroke="#FFFFFF" stroke-width="20"/>
      <circle cx="1242" cy="1266" r="58" fill="#18B8B7" stroke="#FFFFFF" stroke-width="20"/>
      <circle cx="843" cy="1265" r="58" fill="#F2AF2C" stroke="#FFFFFF" stroke-width="20"/>
    </g>
  </g>
</svg>
