<svg xmlns="http://www.w3.org/2000/svg" viewBox="0 0 512 512" role="img" aria-labelledby="title desc">
  <title id="title">Robel Gebre website icon</title>
  <desc id="desc">A professional neuroimaging icon combining a stylized brain, imaging orbits, and connected AI nodes.</desc>
  <defs>
    <linearGradient id="bg" x1="74" y1="38" x2="438" y2="474" gradientUnits="userSpaceOnUse">
      <stop offset="0" stop-color="#102A4C"/>
      <stop offset="0.52" stop-color="#0B1F3A"/>
      <stop offset="1" stop-color="#071425"/>
    </linearGradient>
    <linearGradient id="orbit" x1="93" y1="168" x2="426" y2="337" gradientUnits="userSpaceOnUse">
      <stop offset="0" stop-color="#4CC9F0"/>
      <stop offset="0.55" stop-color="#21B6A8"/>
      <stop offset="1" stop-color="#F2B84B"/>
    </linearGradient>
    <linearGradient id="brainFill" x1="151" y1="145" x2="362" y2="371" gradientUnits="userSpaceOnUse">
      <stop offset="0" stop-color="#EAF7F6"/>
      <stop offset="1" stop-color="#A7F3EA"/>
    </linearGradient>
    <filter id="softShadow" x="-20%" y="-20%" width="140%" height="140%">
      <feDropShadow dx="0" dy="18" stdDeviation="18" flood-color="#000000" flood-opacity="0.28"/>
    </filter>
  </defs>

  <rect width="512" height="512" rx="104" fill="url(#bg)"/>

  <g opacity="0.18">
    <circle cx="102" cy="119" r="4" fill="#EAF7F6"/>
    <circle cx="414" cy="133" r="5" fill="#EAF7F6"/>
    <circle cx="430" cy="383" r="4" fill="#EAF7F6"/>
    <circle cx="88" cy="360" r="5" fill="#EAF7F6"/>
    <circle cx="147" cy="426" r="3" fill="#EAF7F6"/>
    <circle cx="370" cy="78" r="3" fill="#EAF7F6"/>
  </g>

  <g fill="none" stroke-linecap="round" filter="url(#softShadow)">
    <ellipse cx="256" cy="256" rx="181" ry="112" transform="rotate(-18 256 256)" stroke="url(#orbit)" stroke-width="12" opacity="0.95"/>
    <ellipse cx="256" cy="256" rx="186" ry="116" transform="rotate(24 256 256)" stroke="#4CC9F0" stroke-width="6" opacity="0.32"/>
    <path d="M89 256c45-82 289-82 334 0" stroke="#21B6A8" stroke-width="4" opacity="0.28"/>
  </g>

  <g filter="url(#softShadow)">
    <path d="M254 149c-21-24-61-25-80 4-26-3-49 14-55 39-24 14-34 45-20 70-12 24-5 55 18 72 4 30 32 52 62 48 15 27 58 28 74 2 9-14 10-31 10-47V184c0-15-1-25-9-35Z" fill="url(#brainFill)" opacity="0.96"/>
    <path d="M258 149c21-24 61-25 80 4 26-3 49 14 55 39 24 14 34 45 20 70 12 24 5 55-18 72-4 30-32 52-62 48-15 27-58 28-74 2-9-14-10-31-10-47V184c0-15 1-25 9-35Z" fill="url(#brainFill)" opacity="0.96"/>
    <path d="M256 172v169" fill="none" stroke="#0B1F3A" stroke-width="9" stroke-linecap="round" opacity="0.52"/>
  </g>

  <g fill="none" stroke="#0B1F3A" stroke-width="8" stroke-linecap="round" stroke-linejoin="round" opacity="0.62">
    <path d="M194 183c-15 10-20 27-10 42"/>
    <path d="M159 238c23 0 38 14 37 36"/>
    <path d="M181 320c18-4 31-17 35-35"/>
    <path d="M224 223c17 10 23 29 14 47"/>
    <path d="M318 183c15 10 20 27 10 42"/>
    <path d="M353 238c-23 0-38 14-37 36"/>
    <path d="M331 320c-18-4-31-17-35-35"/>
    <path d="M288 223c-17 10-23 29-14 47"/>
  </g>

  <g stroke-linecap="round" stroke-linejoin="round">
    <path d="M177 252 218 207 258 236 305 201 344 257 302 310 242 293 198 331" fill="none" stroke="#0B1F3A" stroke-width="10" opacity="0.20"/>
    <path d="M177 252 218 207 258 236 305 201 344 257 302 310 242 293 198 331" fill="none" stroke="#F2B84B" stroke-width="6" opacity="0.92"/>
    <circle cx="177" cy="252" r="11" fill="#21B6A8" stroke="#EAF7F6" stroke-width="4"/>
    <circle cx="218" cy="207" r="11" fill="#F2B84B" stroke="#EAF7F6" stroke-width="4"/>
    <circle cx="258" cy="236" r="11" fill="#4CC9F0" stroke="#EAF7F6" stroke-width="4"/>
    <circle cx="305" cy="201" r="11" fill="#21B6A8" stroke="#EAF7F6" stroke-width="4"/>
    <circle cx="344" cy="257" r="11" fill="#F2B84B" stroke="#EAF7F6" stroke-width="4"/>
    <circle cx="302" cy="310" r="11" fill="#4CC9F0" stroke="#EAF7F6" stroke-width="4"/>
    <circle cx="242" cy="293" r="11" fill="#21B6A8" stroke="#EAF7F6" stroke-width="4"/>
    <circle cx="198" cy="331" r="11" fill="#F2B84B" stroke="#EAF7F6" stroke-width="4"/>
  </g>
</svg>
