<svg xmlns="http://www.w3.org/2000/svg" width="64" height="64" viewBox="0 0 64 64" role="img" aria-label="Robel Gebre">
  <rect x="0.5" y="0.5" width="63" height="63" rx="14" fill="#FFFFFF" stroke="#E6ECF2"/>
  <path d="M32 13C26 9 18 10 15 16C10 17 8 23 11 27C9 31 11 37 16 38C17 43 24 46 30 43C31 45 33 45 34 43C40 46 47 43 48 38C53 37 55 31 53 27C56 23 54 17 49 16C46 10 38 9 32 13Z"
        fill="#E8F1F7" stroke="#0B2A4A" stroke-width="2.6" stroke-linejoin="round"/>
  <path d="M32 14V44" stroke="#0B2A4A" stroke-width="2" stroke-linecap="round"/>
  <g stroke-width="1.6" stroke-linecap="round" fill="none">
    <path d="M24 23 32 29 40 23" stroke="#F2B84B"/>
    <path d="M24 36 32 29 40 36" stroke="#21B6A8"/>
  </g>
  <g stroke="#FFFFFF" stroke-width="1.4">
    <circle cx="24" cy="23" r="3" fill="#F2B84B"/>
    <circle cx="40" cy="23" r="3" fill="#F2B84B"/>
    <circle cx="24" cy="36" r="3" fill="#21B6A8"/>
    <circle cx="40" cy="36" r="3" fill="#21B6A8"/>
    <circle cx="32" cy="29" r="3.6" fill="#29A3D6"/>
  </g>
</svg>
